<svg width="258" height="49" viewBox="0 0 258 49" fill="none" xmlns="http://www.w3.org/2000/svg">
<path d="M25.976 19.136C27.864 21.376 28.808 23.888 28.808 26.672C28.744 29.872 27.64 32.56 25.496 34.736C23.384 36.88 20.808 37.952 17.768 37.952H5.144C2.904 37.952 1.592 37.344 1.208 36.128C1.016 35.584 0.92 34.752 0.92 33.632V6.992C0.92 6.224 0.936 5.664 0.968 5.312C1.032 4.96 1.192 4.544 1.448 4.064C1.896 3.2 3.144 2.768 5.192 2.768H17.288C20.232 2.768 22.696 3.792 24.68 5.84C26.76 7.92 27.8 10.416 27.8 13.328C27.8 15.44 27.192 17.376 25.976 19.136ZM20.312 26.192C20.312 25.424 20.216 24.816 20.024 24.368C19.864 23.92 19.576 23.6 19.16 23.408C18.52 23.152 17.624 23.024 16.472 23.024C15.32 23.024 14.456 22.8 13.88 22.352C13.304 21.904 13.016 20.992 13.016 19.616C13.016 18.208 13.304 17.28 13.88 16.832C14.488 16.384 15.48 16.16 16.856 16.16C18.136 16.16 18.904 15.824 19.16 15.152C19.256 14.8 19.304 14.224 19.304 13.424C19.304 12.624 19.032 12.064 18.488 11.744C17.976 11.424 17.192 11.264 16.136 11.264H9.416V29.456H17.288C19.304 29.456 20.312 28.368 20.312 26.192ZM49.1353 12.992C49.7433 13.184 50.2393 13.52 50.6233 14C51.0393 14.448 51.2473 15.184 51.2473 16.208C51.2473 17.232 50.9433 18.352 50.3353 19.568C49.7273 20.784 48.8473 21.392 47.6953 21.392C47.1193 21.392 46.5593 21.264 46.0153 21.008C45.5033 20.752 44.8153 20.624 43.9513 20.624C43.0873 20.624 42.2713 20.928 41.5033 21.536C40.7673 22.144 40.3993 22.88 40.3993 23.744V33.824C40.3993 34.56 40.3673 35.12 40.3033 35.504C40.2713 35.856 40.1273 36.272 39.8713 36.752C39.3913 37.584 38.1433 38 36.1273 38C34.5913 38 33.4873 37.728 32.8153 37.184C32.3033 36.736 32.0153 36.048 31.9513 35.12C31.9513 34.8 31.9513 34.336 31.9513 33.728V16.88C31.9513 16.144 31.9673 15.6 31.9993 15.248C32.0633 14.864 32.2073 14.448 32.4313 14C32.8793 13.136 34.1273 12.704 36.1753 12.704C38.0953 12.704 39.2953 13.072 39.7753 13.808C40.1273 14.32 40.3033 14.848 40.3033 15.392C40.4633 15.168 40.6873 14.896 40.9753 14.576C41.2953 14.256 41.9513 13.824 42.9433 13.28C43.9353 12.736 44.7993 12.464 45.5353 12.464C46.3033 12.464 46.9433 12.512 47.4553 12.608C47.9673 12.672 48.5273 12.8 49.1353 12.992ZM68.8516 15.392C69.0436 13.6 70.3076 12.704 72.6436 12.704C73.8916 12.704 74.8196 12.8 75.4276 12.992C76.0356 13.184 76.4516 13.52 76.6756 14C76.9316 14.48 77.0756 14.912 77.1076 15.296C77.1716 15.648 77.2036 16.192 77.2036 16.928V33.728C77.2036 34.464 77.1716 35.024 77.1076 35.408C77.0756 35.76 76.9476 36.176 76.7236 36.656C76.2756 37.488 75.1716 37.904 73.4116 37.904C71.6836 37.904 70.5156 37.696 69.9076 37.28C69.3316 36.832 68.9956 36.192 68.8996 35.36C67.7156 37.056 65.7316 37.904 62.9476 37.904C60.1956 37.904 57.6356 36.64 55.2676 34.112C52.8996 31.584 51.7156 28.656 51.7156 25.328C51.7156 21.968 52.8996 19.04 55.2676 16.544C57.6676 14.016 60.2916 12.752 63.1396 12.752C64.2276 12.752 65.2196 12.944 66.1156 13.328C67.0116 13.712 67.6356 14.08 67.9876 14.432C68.3396 14.752 68.6276 15.072 68.8516 15.392ZM60.1156 25.376C60.1156 26.432 60.5316 27.392 61.3636 28.256C62.1956 29.088 63.2036 29.504 64.3876 29.504C65.5716 29.504 66.5476 29.072 67.3156 28.208C68.1156 27.344 68.5156 26.4 68.5156 25.376C68.5156 24.32 68.1316 23.344 67.3636 22.448C66.6276 21.552 65.6196 21.104 64.3396 21.104C63.0916 21.104 62.0676 21.552 61.2676 22.448C60.4996 23.344 60.1156 24.32 60.1156 25.376ZM95.0934 12.704C98.2934 12.704 100.949 13.936 103.061 16.4C105.205 18.832 106.277 21.808 106.277 25.328V33.776C106.277 34.512 106.245 35.072 106.181 35.456C106.149 35.808 106.021 36.208 105.797 36.656C105.349 37.52 104.101 37.952 102.053 37.952C99.7814 37.952 98.4694 37.36 98.1174 36.176C97.9254 35.632 97.8294 34.816 97.8294 33.728V25.28C97.8294 23.968 97.4454 22.944 96.6774 22.208C95.9414 21.472 94.9334 21.104 93.6534 21.104C92.4054 21.104 91.3814 21.488 90.5814 22.256C89.8134 23.024 89.4294 24.032 89.4294 25.28V33.776C89.4294 34.512 89.3974 35.072 89.3334 35.456C89.3014 35.808 89.1574 36.208 88.9014 36.656C88.4854 37.52 87.2534 37.952 85.2054 37.952C83.1894 37.952 81.9574 37.52 81.5094 36.656C81.2854 36.176 81.1414 35.76 81.0774 35.408C81.0454 35.024 81.0294 34.464 81.0294 33.728V16.736C81.0294 16.032 81.0454 15.504 81.0774 15.152C81.1414 14.768 81.3014 14.352 81.5574 13.904C82.0054 13.104 83.2374 12.704 85.2534 12.704C87.2054 12.704 88.4054 13.072 88.8534 13.808C89.1734 14.352 89.3334 15.008 89.3334 15.776C89.4614 15.552 89.7494 15.232 90.1974 14.816C90.6454 14.4 91.0774 14.064 91.4934 13.808C92.5814 13.072 93.7814 12.704 95.0934 12.704ZM127.083 2.192C127.339 1.712 127.771 1.376 128.379 1.184C128.987 0.991998 129.787 0.895997 130.779 0.895997C131.803 0.895997 132.619 0.991998 133.227 1.184C133.835 1.376 134.251 1.712 134.475 2.192C134.731 2.672 134.875 3.104 134.907 3.488C134.971 3.84 135.003 4.384 135.003 5.12V33.776C135.003 34.512 134.971 35.072 134.907 35.456C134.875 35.808 134.731 36.208 134.475 36.656C133.995 37.52 132.635 37.952 130.395 37.952C128.187 37.952 126.955 37.168 126.699 35.6C125.355 37.136 123.483 37.904 121.083 37.904C118.203 37.904 115.579 36.656 113.211 34.16C110.843 31.632 109.659 28.704 109.659 25.376C109.659 22.016 110.843 19.072 113.211 16.544C115.611 14.016 118.235 12.752 121.083 12.752C123.451 12.752 125.291 13.552 126.603 15.152V5.072C126.603 4.336 126.619 3.792 126.651 3.44C126.715 3.056 126.859 2.64 127.083 2.192ZM119.307 28.256C120.139 29.12 121.147 29.552 122.331 29.552C123.515 29.552 124.491 29.12 125.259 28.256C126.059 27.392 126.459 26.448 126.459 25.424C126.459 24.368 126.075 23.392 125.307 22.496C124.571 21.6 123.563 21.152 122.283 21.152C121.003 21.152 119.979 21.6 119.211 22.496C118.443 23.36 118.059 24.32 118.059 25.376C118.059 26.432 118.475 27.392 119.307 28.256ZM138.826 16.928C138.826 16.192 138.842 15.648 138.874 15.296C138.938 14.912 139.082 14.48 139.306 14C139.754 13.168 141.002 12.752 143.05 12.752C144.586 12.752 145.674 13.024 146.314 13.568C146.858 14.016 147.146 14.704 147.178 15.632C147.21 15.952 147.226 16.416 147.226 17.024V33.824C147.226 34.56 147.194 35.12 147.13 35.504C147.098 35.856 146.954 36.272 146.698 36.752C146.282 37.584 145.05 38 143.002 38C140.986 38 139.754 37.568 139.306 36.704C139.082 36.224 138.938 35.808 138.874 35.456C138.842 35.104 138.826 34.544 138.826 33.776V16.928ZM146.698 8.048C146.474 8.496 146.058 8.816 145.45 9.008C144.842 9.2 144.026 9.296 143.002 9.296C142.01 9.296 141.21 9.2 140.602 9.008C139.994 8.816 139.562 8.48 139.306 8C139.082 7.52 138.938 7.104 138.874 6.752C138.842 6.368 138.826 5.808 138.826 5.072C138.826 4.336 138.842 3.792 138.874 3.44C138.938 3.056 139.082 2.64 139.306 2.192C139.754 1.328 141.002 0.895997 143.05 0.895997C145.066 0.895997 146.282 1.328 146.698 2.192C146.954 2.672 147.098 3.104 147.13 3.488C147.194 3.84 147.226 4.384 147.226 5.12C147.226 5.856 147.194 6.416 147.13 6.8C147.098 7.152 146.954 7.568 146.698 8.048ZM165.125 12.704C168.325 12.704 170.981 13.936 173.093 16.4C175.237 18.832 176.309 21.808 176.309 25.328V33.776C176.309 34.512 176.277 35.072 176.213 35.456C176.181 35.808 176.053 36.208 175.829 36.656C175.381 37.52 174.133 37.952 172.085 37.952C169.813 37.952 168.501 37.36 168.149 36.176C167.957 35.632 167.861 34.816 167.861 33.728V25.28C167.861 23.968 167.477 22.944 166.709 22.208C165.973 21.472 164.965 21.104 163.685 21.104C162.437 21.104 161.413 21.488 160.613 22.256C159.845 23.024 159.461 24.032 159.461 25.28V33.776C159.461 34.512 159.429 35.072 159.365 35.456C159.333 35.808 159.189 36.208 158.933 36.656C158.517 37.52 157.285 37.952 155.237 37.952C153.221 37.952 151.989 37.52 151.541 36.656C151.317 36.176 151.173 35.76 151.109 35.408C151.077 35.024 151.061 34.464 151.061 33.728V16.736C151.061 16.032 151.077 15.504 151.109 15.152C151.173 14.768 151.333 14.352 151.589 13.904C152.037 13.104 153.269 12.704 155.285 12.704C157.237 12.704 158.437 13.072 158.885 13.808C159.205 14.352 159.365 15.008 159.365 15.776C159.493 15.552 159.781 15.232 160.229 14.816C160.677 14.4 161.109 14.064 161.525 13.808C162.613 13.072 163.813 12.704 165.125 12.704ZM196.202 34.832C194.986 36.432 193.05 37.232 190.394 37.232C187.738 37.232 185.242 36.016 182.906 33.584C180.602 31.12 179.45 28.256 179.45 24.992C179.45 21.728 180.618 18.864 182.954 16.4C185.29 13.936 187.85 12.704 190.634 12.704C191.722 12.704 192.714 12.912 193.61 13.328C194.506 13.712 195.114 14.08 195.434 14.432C195.786 14.752 196.058 15.056 196.25 15.344C196.346 14.448 196.666 13.776 197.21 13.328C197.786 12.848 198.698 12.608 199.946 12.608C201.194 12.608 202.106 12.704 202.682 12.896C203.258 13.088 203.658 13.424 203.882 13.904C204.138 14.352 204.282 14.752 204.314 15.104C204.378 15.456 204.41 16 204.41 16.736V36.608C204.41 40.288 203.13 43.248 200.57 45.488C198.01 47.76 195.13 48.896 191.93 48.896C189.498 48.896 187.178 48.304 184.97 47.12C182.762 45.936 181.658 44.864 181.658 43.904C181.658 42.656 182.138 41.552 183.098 40.592C183.706 39.92 184.17 39.456 184.49 39.2C184.842 38.944 185.242 38.816 185.69 38.816C186.138 38.816 186.602 39.008 187.082 39.392C188.618 40.576 190.282 41.168 192.074 41.168C193.29 41.168 194.282 40.688 195.05 39.728C195.818 38.768 196.202 37.616 196.202 36.272V34.832ZM187.658 25.04C187.658 26.064 188.058 26.992 188.858 27.824C189.69 28.656 190.682 29.072 191.834 29.072C193.018 29.072 193.994 28.656 194.762 27.824C195.53 26.96 195.914 26.032 195.914 25.04C195.914 24.016 195.546 23.072 194.81 22.208C194.074 21.312 193.082 20.864 191.834 20.864C190.586 20.864 189.578 21.296 188.81 22.16C188.042 23.024 187.658 23.984 187.658 25.04ZM215.688 30.08C216.232 30.624 216.504 31.744 216.504 33.44V33.632C216.504 34.4 216.472 34.976 216.408 35.36C216.376 35.712 216.216 36.144 215.928 36.656C215.448 37.584 214.232 38.048 212.28 38.048C210.36 38.048 209.08 37.744 208.44 37.136C207.832 36.528 207.528 35.376 207.528 33.68V33.488C207.528 32.752 207.544 32.192 207.576 31.808C207.64 31.424 207.8 30.992 208.056 30.512C208.536 29.552 209.736 29.072 211.656 29.072C213.608 29.072 214.952 29.408 215.688 30.08ZM219.639 16.928C219.639 16.192 219.655 15.648 219.687 15.296C219.751 14.912 219.895 14.48 220.119 14C220.567 13.168 221.815 12.752 223.863 12.752C225.399 12.752 226.487 13.024 227.127 13.568C227.671 14.016 227.959 14.704 227.991 15.632C228.023 15.952 228.039 16.416 228.039 17.024V33.824C228.039 34.56 228.007 35.12 227.943 35.504C227.911 35.856 227.767 36.272 227.511 36.752C227.095 37.584 225.863 38 223.815 38C221.799 38 220.567 37.568 220.119 36.704C219.895 36.224 219.751 35.808 219.687 35.456C219.655 35.104 219.639 34.544 219.639 33.776V16.928ZM227.511 8.048C227.287 8.496 226.871 8.816 226.263 9.008C225.655 9.2 224.839 9.296 223.815 9.296C222.823 9.296 222.023 9.2 221.415 9.008C220.807 8.816 220.375 8.48 220.119 8C219.895 7.52 219.751 7.104 219.687 6.752C219.655 6.368 219.639 5.808 219.639 5.072C219.639 4.336 219.655 3.792 219.687 3.44C219.751 3.056 219.895 2.64 220.119 2.192C220.567 1.328 221.815 0.895997 223.863 0.895997C225.879 0.895997 227.095 1.328 227.511 2.192C227.767 2.672 227.911 3.104 227.943 3.488C228.007 3.84 228.039 4.384 228.039 5.12C228.039 5.856 228.007 6.416 227.943 6.8C227.911 7.152 227.767 7.568 227.511 8.048ZM245.937 12.704C249.137 12.704 251.793 13.936 253.905 16.4C256.049 18.832 257.121 21.808 257.121 25.328V33.776C257.121 34.512 257.089 35.072 257.025 35.456C256.993 35.808 256.865 36.208 256.641 36.656C256.193 37.52 254.945 37.952 252.897 37.952C250.625 37.952 249.313 37.36 248.961 36.176C248.769 35.632 248.673 34.816 248.673 33.728V25.28C248.673 23.968 248.289 22.944 247.521 22.208C246.785 21.472 245.777 21.104 244.497 21.104C243.249 21.104 242.225 21.488 241.425 22.256C240.657 23.024 240.273 24.032 240.273 25.28V33.776C240.273 34.512 240.241 35.072 240.177 35.456C240.145 35.808 240.001 36.208 239.745 36.656C239.329 37.52 238.097 37.952 236.049 37.952C234.033 37.952 232.801 37.52 232.353 36.656C232.129 36.176 231.985 35.76 231.921 35.408C231.889 35.024 231.873 34.464 231.873 33.728V16.736C231.873 16.032 231.889 15.504 231.921 15.152C231.985 14.768 232.145 14.352 232.401 13.904C232.849 13.104 234.081 12.704 236.097 12.704C238.049 12.704 239.249 13.072 239.697 13.808C240.017 14.352 240.177 15.008 240.177 15.776C240.305 15.552 240.593 15.232 241.041 14.816C241.489 14.4 241.921 14.064 242.337 13.808C243.425 13.072 244.625 12.704 245.937 12.704Z" fill="white"/>
</svg>
